<?xml version="1.0" standalone="no"?>
<!DOCTYPE svg PUBLIC "-//W3C//DTD SVG 1.1//EN" "http://www.w3.org/Graphics/SVG/1.1/DTD/svg11.dtd">
<svg width="250mm" height="26mm" viewBox="0 -20 250 26" xmlns="http://www.w3.org/2000/svg" version="1.1">
<title>OpenSCAD Model</title>
<path d="
M 55.4055,-4.45769 L 55.7056,-4.45769 L 55.7056,5.00346 L 55.9055,5.00346 L 55.9055,5 L 58.1833,5
 L 58.1833,0.444931 L 58.4833,0.444931 L 58.4833,5 L 60.9611,5 L 60.9611,0.444931 L 61.2611,0.444931
 L 61.2611,5 L 63.7389,5 L 63.7389,0.444931 L 64.0389,0.444931 L 64.0389,5 L 66.5167,5
 L 66.5167,1.92833 L 66.8167,1.92833 L 66.8167,5 L 69.2944,5 L 69.2944,0.444931 L 69.5944,0.444931
 L 69.5944,5 L 72.0722,5 L 72.0722,0.444931 L 72.3722,0.444931 L 72.3722,5 L 74.85,5
 L 74.85,0.444931 L 75.15,0.444931 L 75.15,5 L 77.6278,5 L 77.6278,1.92833 L 77.9278,1.92833
 L 77.9278,5 L 80.4055,5 L 80.4055,0.444931 L 80.7056,0.444931 L 80.7056,5 L 83.1833,5
 L 83.1833,-1.03847 L 83.4833,-1.03847 L 83.4833,5 L 85.9611,5 L 85.9611,0.444931 L 86.2611,0.444931
 L 86.2611,5 L 88.7389,5 L 88.7389,1.92833 L 89.0389,1.92833 L 89.0389,5 L 91.5167,5
 L 91.5167,0.444931 L 91.8167,0.444931 L 91.8167,5 L 94.2944,5 L 94.2944,0.444931 L 94.5944,0.444931
 L 94.5944,5 L 97.0722,5 L 97.0722,0.444931 L 97.3722,0.444931 L 97.3722,5 L 99.85,5
 L 99.85,1.92833 L 100.15,1.92833 L 100.15,5 L 102.628,5 L 102.628,0.444931 L 102.928,0.444931
 L 102.928,5 L 105.406,5 L 105.406,0.444931 L 105.706,0.444931 L 105.706,5 L 108.183,5
 L 108.183,0.444931 L 108.483,0.444931 L 108.483,5 L 110.761,5 L 110.761,5.00346 L 110.961,5.00346
 L 110.961,-4.45769 L 111.261,-4.45769 L 111.261,5.00346 L 111.461,5.00346 L 111.461,5 L 113.739,5
 L 113.739,0.444931 L 114.039,0.444931 L 114.039,5 L 116.517,5 L 116.517,0.444931 L 116.817,0.444931
 L 116.817,5 L 119.294,5 L 119.294,0.444931 L 119.594,0.444931 L 119.594,5 L 122.072,5
 L 122.072,1.92833 L 122.372,1.92833 L 122.372,5 L 124.85,5 L 124.85,0.444931 L 125.15,0.444931
 L 125.15,5 L 127.628,5 L 127.628,0.444931 L 127.928,0.444931 L 127.928,5 L 130.406,5
 L 130.406,0.444931 L 130.706,0.444931 L 130.706,5 L 133.183,5 L 133.183,1.92833 L 133.483,1.92833
 L 133.483,5 L 135.961,5 L 135.961,0.444931 L 136.261,0.444931 L 136.261,5 L 138.739,5
 L 138.739,-1.03847 L 139.039,-1.03847 L 139.039,5 L 141.517,5 L 141.517,0.444931 L 141.817,0.444931
 L 141.817,5 L 144.294,5 L 144.294,1.92833 L 144.594,1.92833 L 144.594,5 L 147.072,5
 L 147.072,0.444931 L 147.372,0.444931 L 147.372,5 L 149.85,5 L 149.85,0.444931 L 150.15,0.444931
 L 150.15,5 L 152.628,5 L 152.628,0.444931 L 152.928,0.444931 L 152.928,5 L 155.406,5
 L 155.406,1.92833 L 155.706,1.92833 L 155.706,5 L 158.183,5 L 158.183,0.444931 L 158.483,0.444931
 L 158.483,5 L 160.961,5 L 160.961,0.444931 L 161.261,0.444931 L 161.261,5 L 163.739,5
 L 163.739,0.444931 L 164.039,0.444931 L 164.039,5 L 166.317,5 L 166.317,5.00346 L 166.517,5.00346
 L 166.517,-4.45769 L 166.817,-4.45769 L 166.817,5.00346 L 167.017,5.00346 L 167.017,5 L 169.294,5
 L 169.294,0.444931 L 169.594,0.444931 L 169.594,5 L 172.072,5 L 172.072,0.444931 L 172.372,0.444931
 L 172.372,5 L 174.85,5 L 174.85,0.444931 L 175.15,0.444931 L 175.15,5 L 177.628,5
 L 177.628,1.92833 L 177.928,1.92833 L 177.928,5 L 180.406,5 L 180.406,0.444931 L 180.706,0.444931
 L 180.706,5 L 183.183,5 L 183.183,0.444931 L 183.483,0.444931 L 183.483,5 L 185.961,5
 L 185.961,0.444931 L 186.261,0.444931 L 186.261,5 L 188.739,5 L 188.739,1.92833 L 189.039,1.92833
 L 189.039,5 L 191.517,5 L 191.517,0.444931 L 191.817,0.444931 L 191.817,5 L 194.294,5
 L 194.294,-1.03847 L 194.594,-1.03847 L 194.594,5 L 197.072,5 L 197.072,0.444931 L 197.372,0.444931
 L 197.372,5 L 199.85,5 L 199.85,1.92833 L 200.15,1.92833 L 200.15,5 L 202.628,5
 L 202.628,0.444931 L 202.928,0.444931 L 202.928,5 L 205.406,5 L 205.406,0.444931 L 205.706,0.444931
 L 205.706,5 L 208.183,5 L 208.183,0.444931 L 208.483,0.444931 L 208.483,5 L 210.961,5
 L 210.961,1.92833 L 211.261,1.92833 L 211.261,5 L 213.739,5 L 213.739,0.444931 L 214.039,0.444931
 L 214.039,5 L 216.517,5 L 216.517,0.444931 L 216.817,0.444931 L 216.817,5 L 219.294,5
 L 219.294,0.444931 L 219.594,0.444931 L 219.594,5 L 221.872,5 L 221.872,5.00346 L 222.072,5.00346
 L 222.072,-4.45769 L 222.372,-4.45769 L 222.372,5.00346 L 222.572,5.00346 L 222.572,5 L 224.85,5
 L 224.85,0.444931 L 225.15,0.444931 L 225.15,5 L 227.628,5 L 227.628,0.444931 L 227.928,0.444931
 L 227.928,5 L 230.406,5 L 230.406,0.444931 L 230.706,0.444931 L 230.706,5 L 233.183,5
 L 233.183,1.92833 L 233.483,1.92833 L 233.483,5 L 235.961,5 L 235.961,0.444931 L 236.261,0.444931
 L 236.261,5 L 238.739,5 L 238.739,0.444931 L 239.039,0.444931 L 239.039,5 L 241.517,5
 L 241.517,0.444931 L 241.817,0.444931 L 241.817,5 L 244.294,5 L 244.294,1.92833 L 244.594,1.92833
 L 244.594,5 L 247.072,5 L 247.072,0.444931 L 247.372,0.444931 L 247.372,5 L 249.85,5
 L 249.85,-1.03847 L 250,-1.03847 L 250,-20 L 0,-20 L 0,-4.49974 L 0.149994,-4.49974
 L 0.149994,5 L 2.62778,5 L 2.62778,0.444931 L 2.92776,0.444931 L 2.92776,5 L 5.40555,5
 L 5.40555,0.444931 L 5.70555,0.444931 L 5.70555,5 L 8.18332,5 L 8.18332,0.444931 L 8.48332,0.444931
 L 8.48332,5 L 10.9611,5 L 10.9611,1.92833 L 11.2611,1.92833 L 11.2611,5 L 13.7389,5
 L 13.7389,0.444931 L 14.0389,0.444931 L 14.0389,5 L 16.5167,5 L 16.5167,0.444931 L 16.8167,0.444931
 L 16.8167,5 L 19.2944,5 L 19.2944,0.444931 L 19.5944,0.444931 L 19.5944,5 L 22.0722,5
 L 22.0722,1.92833 L 22.3722,1.92833 L 22.3722,5 L 24.85,5 L 24.85,0.444931 L 25.15,0.444931
 L 25.15,5 L 27.6278,5 L 27.6278,-1.03847 L 27.9278,-1.03847 L 27.9278,5 L 30.4055,5
 L 30.4055,0.444931 L 30.7056,0.444931 L 30.7056,5 L 33.1833,5 L 33.1833,1.92833 L 33.4833,1.92833
 L 33.4833,5 L 35.9611,5 L 35.9611,0.444931 L 36.2611,0.444931 L 36.2611,5 L 38.7389,5
 L 38.7389,0.444931 L 39.0389,0.444931 L 39.0389,5 L 41.5167,5 L 41.5167,0.444931 L 41.8167,0.444931
 L 41.8167,5 L 44.2944,5 L 44.2944,1.92833 L 44.5944,1.92833 L 44.5944,5 L 47.0722,5
 L 47.0722,0.444931 L 47.3722,0.444931 L 47.3722,5 L 49.85,5 L 49.85,0.444931 L 50.15,0.444931
 L 50.15,5 L 52.6278,5 L 52.6278,0.444931 L 52.9278,0.444931 L 52.9278,5 L 55.2056,5
 L 55.2056,5.00346 L 55.4055,5.00346 z
M 72.1476,-12.0394 L 71.8568,-12.0918 L 71.5856,-12.1792 L 71.3342,-12.3016 L 71.1064,-12.4572 L 70.9061,-12.6444
 L 70.7334,-12.8632 L 70.5882,-13.1136 L 70.4729,-13.3914 L 70.3895,-13.6925 L 70.3381,-14.0169 L 70.3187,-14.3646
 L 70.3187,-14.7003 L 70.3343,-15.0574 L 70.381,-15.3898 L 70.4589,-15.6973 L 70.5679,-15.9801 L 70.7063,-16.2346
 L 70.8722,-16.4573 L 71.0657,-16.6482 L 71.2867,-16.8074 L 71.5316,-16.9327 L 71.7966,-17.0222 L 72.0817,-17.0759
 L 72.387,-17.0939 L 72.8021,-17.0677 L 73.1694,-16.9892 L 73.4887,-16.8584 L 73.7602,-16.6753 L 73.9825,-16.4422
 L 74.1544,-16.1614 L 74.2758,-15.833 L 74.3468,-15.457 L 73.3567,-15.457 L 73.3125,-15.6545 L 73.2478,-15.8236
 L 73.1625,-15.9644 L 73.0566,-16.0768 L 72.9296,-16.1628 L 72.7807,-16.2242 L 72.61,-16.261 L 72.4175,-16.2733
 L 72.1736,-16.2489 L 71.9606,-16.1758 L 71.7786,-16.054 L 71.6275,-15.8834 L 71.5086,-15.6647 L 71.4232,-15.3986
 L 71.3713,-15.085 L 71.3528,-14.724 L 71.3528,-14.4087 L 71.3713,-14.0442 L 71.4266,-13.7272 L 71.5188,-13.4577
 L 71.6478,-13.2357 L 71.8125,-13.0621 L 72.0115,-12.9382 L 72.2448,-12.8638 L 72.5124,-12.839 L 72.7784,-12.8543
 L 73.0032,-12.9001 L 73.187,-12.9764 L 73.3296,-13.0833 L 73.3296,-13.9349 L 72.4039,-13.9349 L 72.4039,-14.6842
 L 74.3468,-14.6842 L 74.3468,-12.7138 L 74.1953,-12.5585 L 74.0153,-12.4217 L 73.807,-12.3033 L 73.5703,-12.2033
 L 73.3126,-12.1239 L 73.0414,-12.0672 L 72.7566,-12.0332 L 72.4582,-12.0219 z
M 84.1753,-12.0403 L 83.8932,-12.0956 L 83.6277,-12.1878 L 83.3787,-12.3168 L 83.1515,-12.4801 L 82.9515,-12.6749
 L 82.7786,-12.9014 L 82.6328,-13.1593 L 82.5169,-13.4434 L 82.4336,-13.748 L 82.3829,-14.0732 L 82.3649,-14.4189
 L 82.3649,-14.6629 L 82.3813,-15.0165 L 82.4306,-15.3482 L 82.5127,-15.6581 L 82.6277,-15.9462 L 82.7726,-16.2073
 L 82.9447,-16.4361 L 83.1439,-16.6328 L 83.3702,-16.7972 L 83.6187,-16.927 L 83.8844,-17.0197 L 84.1672,-17.0753
 L 84.4671,-17.0939 L 84.7671,-17.0753 L 85.0499,-17.0197 L 85.3155,-16.927 L 85.564,-16.7972 L 85.7903,-16.6328
 L 85.9895,-16.4361 L 86.1615,-16.2073 L 86.3065,-15.9462 L 86.4215,-15.6584 L 86.5036,-15.3491 L 86.5529,-15.0184
 L 86.5693,-14.6664 L 86.5693,-14.446 L 86.5532,-14.0927 L 86.5049,-13.762 L 86.4243,-13.4537 L 86.3116,-13.1678
 L 86.1689,-12.9089 L 85.9984,-12.6813 L 85.8001,-12.4851 L 85.5741,-12.3202 L 85.3255,-12.1897 L 85.0592,-12.0965
 L 84.7753,-12.0405 L 84.4739,-12.0219 z
M 84.715,-12.8811 L 84.9265,-12.9564 L 85.1084,-13.082 L 85.2605,-13.2577 L 85.3809,-13.4816 L 85.4674,-13.7514
 L 85.5199,-14.0672 L 85.5385,-14.429 L 85.5385,-14.6697 L 85.5211,-15.0346 L 85.469,-15.3529 L 85.3821,-15.6245
 L 85.2605,-15.8495 L 85.1066,-16.026 L 84.9231,-16.1521 L 84.71,-16.2277 L 84.4671,-16.253 L 84.2258,-16.2281
 L 84.0136,-16.1534 L 83.8307,-16.0289 L 83.6771,-15.8546 L 83.5553,-15.6322 L 83.4677,-15.3634 L 83.4146,-15.0482
 L 83.3957,-14.6867 L 83.3957,-14.446 L 83.4131,-14.0892 L 83.4652,-13.7747 L 83.5521,-13.5027 L 83.6737,-13.273
 L 83.828,-13.0905 L 84.0128,-12.9602 L 84.2281,-12.882 L 84.4739,-12.856 z
M 75.1246,-12.0891 L 75.1246,-17.0267 L 76.1418,-17.0267 L 76.1418,-12.0891 z
M 87.1964,-12.0891 L 87.1964,-17.0267 L 90.4989,-17.0267 L 90.4989,-16.2028 L 88.2136,-16.2028 L 88.2136,-15.0267
 L 90.1666,-15.0267 L 90.1666,-14.2299 L 88.2136,-14.2299 L 88.2136,-12.9062 L 90.5057,-12.9062 L 90.5057,-12.0891
 z
M 79.7087,-12.0468 L 79.382,-12.1215 L 79.0984,-12.246 L 78.8581,-12.4203 L 78.6668,-12.6401 L 78.5301,-12.9013
 L 78.4481,-13.2038 L 78.4207,-13.5476 L 79.4447,-13.5476 L 79.4542,-13.3781 L 79.4828,-13.2323 L 79.5305,-13.1102
 L 79.5972,-13.0119 L 79.6846,-12.9363 L 79.7939,-12.8822 L 79.9253,-12.8498 L 80.0788,-12.839 L 80.2171,-12.8515
 L 80.3407,-12.889 L 80.4494,-12.9516 L 80.5432,-13.0391 L 80.6189,-13.1497 L 80.673,-13.2815 L 80.7054,-13.4345
 L 80.7162,-13.6087 L 80.7162,-17.0267 L 81.7334,-17.0267 L 81.7334,-13.6088 L 81.7203,-13.38 L 81.6812,-13.165
 L 81.616,-12.9638 L 81.5248,-12.7763 L 81.4099,-12.606 L 81.2735,-12.4563 L 81.1157,-12.3271 L 80.9366,-12.2185
 L 80.7405,-12.1325 L 80.5322,-12.071 L 80.3116,-12.0342 L 80.0788,-12.0219 z
M 239.043,-10.1903 L 238.232,-10.7322 L 237.69,-11.5433 L 237.5,-12.5 L 237.69,-13.4567 L 238.232,-14.2678
 L 239.043,-14.8097 L 240,-15 L 240.957,-14.8097 L 241.768,-14.2678 L 242.31,-13.4567 L 242.5,-12.5
 L 242.31,-11.5433 L 241.768,-10.7322 L 240.957,-10.1903 L 240,-10 z
M 8.13712,-9.96533 L 7.91554,-10.0226 L 7.72073,-10.118 L 7.55273,-10.2515 L 7.41745,-10.418 L 7.32083,-10.6121
 L 7.26285,-10.8339 L 7.24353,-11.0833 L 7.25235,-11.2422 L 7.27879,-11.3907 L 7.32286,-11.5286 L 7.38457,-11.6559
 L 7.4617,-11.7713 L 7.55206,-11.873 L 7.65564,-11.9612 L 7.77245,-12.0359 L 7.66988,-12.1079 L 7.57918,-12.1911
 L 7.50034,-12.2854 L 7.43336,-12.3909 L 7.37997,-12.5062 L 7.34184,-12.6295 L 7.31895,-12.761 L 7.31133,-12.9006
 L 7.32947,-13.1454 L 7.38388,-13.3621 L 7.47459,-13.5506 L 7.60156,-13.7111 L 7.75906,-13.8392 L 7.94131,-13.9306
 L 8.1483,-13.9855 L 8.38005,-14.0038 L 8.614,-13.9854 L 8.82219,-13.93 L 9.00461,-13.8376 L 9.16125,-13.7084
 L 9.28703,-13.5471 L 9.37689,-13.3587 L 9.4308,-13.1432 L 9.44876,-12.9006 L 9.44113,-12.761 L 9.41824,-12.6295
 L 9.3801,-12.5062 L 9.32669,-12.3909 L 9.2599,-12.2854 L 9.18159,-12.1911 L 9.09174,-12.1079 L 8.99037,-12.0359
 L 9.10599,-11.9601 L 9.20872,-11.8714 L 9.29857,-11.7695 L 9.37553,-11.6546 L 9.43726,-11.5278 L 9.48134,-11.3903
 L 9.5078,-11.2422 L 9.5166,-11.0833 L 9.49762,-10.8339 L 9.44066,-10.6121 L 9.34572,-10.418 L 9.21281,-10.2515
 L 9.04718,-10.118 L 8.85408,-10.0226 L 8.63351,-9.96533 L 8.38548,-9.94624 z
M 8.4565,-12.3513 L 8.5177,-12.3779 L 8.56908,-12.4224 L 8.61061,-12.4846 L 8.64265,-12.5614 L 8.66554,-12.6495
 L 8.67928,-12.749 L 8.68385,-12.8598 L 8.67918,-12.9692 L 8.66519,-13.067 L 8.64189,-13.1534 L 8.60925,-13.2282
 L 8.56694,-13.2887 L 8.51465,-13.3318 L 8.45235,-13.3578 L 8.38005,-13.3664 L 8.31122,-13.358 L 8.25119,-13.3329
 L 8.2,-13.291 L 8.15761,-13.2323 L 8.12439,-13.1587 L 8.10066,-13.0721 L 8.08643,-12.9725 L 8.08168,-12.8598
 L 8.08643,-12.749 L 8.10066,-12.6495 L 8.12439,-12.5614 L 8.15761,-12.4846 L 8.20033,-12.4224 L 8.25255,-12.3779
 L 8.31425,-12.3513 L 8.38545,-12.3424 z
M 8.46729,-10.5929 L 8.53908,-10.6207 L 8.60086,-10.6669 L 8.65265,-10.7316 L 8.6936,-10.8128 L 8.72285,-10.9084
 L 8.7404,-11.0185 L 8.74625,-11.143 L 8.74014,-11.2675 L 8.72183,-11.3778 L 8.6913,-11.4738 L 8.64857,-11.5556
 L 8.59517,-11.621 L 8.53262,-11.6676 L 8.46091,-11.6956 L 8.38005,-11.705 L 8.2991,-11.6956 L 8.22714,-11.6676
 L 8.16415,-11.621 L 8.11017,-11.5556 L 8.06685,-11.4738 L 8.03592,-11.3778 L 8.01735,-11.2675 L 8.01117,-11.143
 L 8.01735,-11.0185 L 8.03592,-10.9084 L 8.06685,-10.8128 L 8.11017,-10.7316 L 8.16451,-10.6669 L 8.2285,-10.6207
 L 8.30215,-10.5929 L 8.38548,-10.5837 z
M 5.41048,-10 L 5.41048,-13.0165 L 4.65912,-12.7262 L 4.65912,-13.3664 L 6.09944,-13.9552 L 6.1808,-13.9552
 L 6.1808,-10 z
M 1.17723,-10 L 1.17723,-13.0165 L 0.425873,-12.7262 L 0.425873,-13.3664 L 1.8662,-13.9552 L 1.94756,-13.9552
 L 1.94756,-10 z
M 3.44438,-12.1961 L 3.36053,-12.218 L 3.285,-12.2544 L 3.21776,-12.3054 L 3.16258,-12.3682 L 3.12317,-12.4397
 L 3.09953,-12.5201 L 3.09164,-12.6092 L 3.09937,-12.6974 L 3.1225,-12.7774 L 3.16106,-12.8493 L 3.21504,-12.913
 L 3.28143,-12.9653 L 3.35713,-13.0025 L 3.44217,-13.0249 L 3.53653,-13.0324 L 3.62874,-13.025 L 3.71281,-13.0029
 L 3.78876,-12.966 L 3.85657,-12.9144 L 3.91235,-12.8511 L 3.95221,-12.7791 L 3.97612,-12.6985 L 3.98409,-12.6092
 L 3.97603,-12.519 L 3.95187,-12.438 L 3.91161,-12.3664 L 3.85524,-12.3041 L 3.78702,-12.2536 L 3.71115,-12.2176
 L 3.62766,-12.196 L 3.53653,-12.1888 z
M 10.0043,-10 L 10.0043,-12.9337 L 10.7231,-12.9337 L 10.7447,-12.6645 L 10.8839,-12.8069 L 11.0438,-12.9087
 L 11.2244,-12.9697 L 11.4256,-12.9901 L 11.6292,-12.9653 L 11.8006,-12.891 L 11.9398,-12.7672 L 12.0467,-12.5939
 L 12.1863,-12.7672 L 12.3526,-12.891 L 12.5457,-12.9653 L 12.7656,-12.9901 L 13.1038,-12.9234 L 13.3481,-12.7235
 L 13.4984,-12.3903 L 13.5549,-11.9238 L 13.5549,-10 L 12.7873,-10 L 12.7873,-11.875 L 12.7829,-11.9934
 L 12.7696,-12.0935 L 12.7476,-12.1752 L 12.7167,-12.2386 L 12.6754,-12.2861 L 12.6218,-12.3201 L 12.556,-12.3404
 L 12.4781,-12.3472 L 12.3777,-12.3307 L 12.2909,-12.2814 L 12.2177,-12.1991 L 12.158,-12.084 L 12.1634,-11.9917
 L 12.1634,-10 L 11.3957,-10 L 11.3957,-11.8696 L 11.3915,-11.987 L 11.3788,-12.087 L 11.3576,-12.1695
 L 11.3279,-12.2346 L 11.2874,-12.2838 L 11.2337,-12.319 L 11.1667,-12.3401 L 11.0865,-12.3472 L 10.9926,-12.3338
 L 10.9088,-12.2936 L 10.8353,-12.2266 L 10.7719,-12.1328 L 10.7719,-10 z
M 3.44438,-9.97658 L 3.36053,-9.99844 L 3.285,-10.0349 L 3.21776,-10.0859 L 3.16258,-10.1486 L 3.12317,-10.2202
 L 3.09953,-10.3005 L 3.09164,-10.3897 L 3.09937,-10.4779 L 3.1225,-10.5579 L 3.16106,-10.6298 L 3.21504,-10.6935
 L 3.28143,-10.7457 L 3.35713,-10.783 L 3.44217,-10.8054 L 3.53653,-10.8129 L 3.62874,-10.8055 L 3.71281,-10.7834
 L 3.78876,-10.7465 L 3.85657,-10.6949 L 3.91235,-10.6315 L 3.95221,-10.5596 L 3.97612,-10.479 L 3.98409,-10.3897
 L 3.97603,-10.2994 L 3.95187,-10.2185 L 3.91161,-10.1469 L 3.85524,-10.0845 L 3.78702,-10.0341 L 3.71115,-9.99811
 L 3.62766,-9.97649 L 3.53653,-9.96928 z
M 111.997,-5.5 L 111.997,-6.04251 L 113.065,-7.40155 L 113.16,-7.53828 L 113.242,-7.66637 L 113.31,-7.78581
 L 113.365,-7.89659 L 113.407,-8.00197 L 113.437,-8.10515 L 113.455,-8.20612 L 113.461,-8.30487 L 113.456,-8.42931
 L 113.439,-8.53951 L 113.41,-8.63547 L 113.37,-8.71719 L 113.32,-8.78247 L 113.26,-8.82909 L 113.189,-8.85707
 L 113.109,-8.86639 L 113.02,-8.85555 L 112.941,-8.82298 L 112.871,-8.76872 L 112.812,-8.69275 L 112.764,-8.59714
 L 112.729,-8.48389 L 112.709,-8.353 L 112.702,-8.20447 L 111.931,-8.20447 L 111.941,-8.38231 L 111.969,-8.55237
 L 112.016,-8.71461 L 112.082,-8.86908 L 112.165,-9.01123 L 112.263,-9.13661 L 112.377,-9.24519 L 112.505,-9.33699
 L 112.646,-9.40999 L 112.796,-9.46213 L 112.955,-9.49341 L 113.122,-9.50383 L 113.372,-9.48561 L 113.592,-9.43094
 L 113.782,-9.33981 L 113.943,-9.21223 L 114.07,-9.05109 L 114.161,-8.85925 L 114.216,-8.63673 L 114.234,-8.38351
 L 114.224,-8.21609 L 114.194,-8.04749 L 114.144,-7.8777 L 114.073,-7.70671 L 113.976,-7.52521 L 113.846,-7.32388
 L 113.684,-7.10272 L 113.488,-6.86171 L 112.981,-6.13744 L 114.324,-6.13744 L 114.324,-5.5 z
M 168.374,-5.46582 L 168.156,-5.52454 L 167.962,-5.62244 L 167.792,-5.75948 L 167.654,-5.92841 L 167.555,-6.12192
 L 167.496,-6.34 L 167.476,-6.58267 L 168.244,-6.58267 L 168.251,-6.48114 L 168.272,-6.38809 L 168.306,-6.30351
 L 168.355,-6.22739 L 168.414,-6.16452 L 168.481,-6.1196 L 168.555,-6.09265 L 168.637,-6.08368 L 168.731,-6.09282
 L 168.814,-6.12027 L 168.888,-6.16602 L 168.95,-6.23007 L 169.001,-6.30937 L 169.037,-6.40088 L 169.059,-6.50458
 L 169.066,-6.62047 L 169.037,-6.87564 L 168.952,-7.05829 L 168.811,-7.16841 L 168.613,-7.20604 L 168.236,-7.20604
 L 168.236,-7.82448 L 168.607,-7.82448 L 168.706,-7.83371 L 168.791,-7.86143 L 168.861,-7.90765 L 168.918,-7.97235
 L 168.961,-8.05247 L 168.992,-8.14499 L 169.011,-8.24988 L 169.017,-8.36716 L 169.011,-8.47864 L 168.991,-8.57709
 L 168.96,-8.66246 L 168.915,-8.73479 L 168.86,-8.79237 L 168.796,-8.8335 L 168.724,-8.85817 L 168.643,-8.86639
 L 168.566,-8.8586 L 168.497,-8.83521 L 168.435,-8.79622 L 168.381,-8.74164 L 168.336,-8.67519 L 168.305,-8.6006
 L 168.285,-8.51788 L 168.279,-8.42703 L 167.511,-8.42703 L 167.52,-8.57765 L 167.547,-8.72031 L 167.592,-8.855
 L 167.654,-8.98172 L 167.732,-9.09775 L 167.825,-9.20041 L 167.932,-9.28966 L 168.053,-9.36551 L 168.184,-9.42603
 L 168.323,-9.46925 L 168.468,-9.49519 L 168.621,-9.50383 L 168.879,-9.48502 L 169.107,-9.42854 L 169.306,-9.33443
 L 169.475,-9.20267 L 169.611,-9.03821 L 169.707,-8.84595 L 169.765,-8.62587 L 169.785,-8.37799 L 169.776,-8.24615
 L 169.75,-8.11923 L 169.706,-7.99724 L 169.645,-7.88016 L 169.569,-7.77223 L 169.483,-7.6777 L 169.386,-7.59657
 L 169.277,-7.52884 L 169.408,-7.46172 L 169.521,-7.37968 L 169.616,-7.28273 L 169.694,-7.17087 L 169.754,-7.04614
 L 169.796,-6.91057 L 169.822,-6.76413 L 169.831,-6.60683 L 169.81,-6.35686 L 169.747,-6.13298 L 169.642,-5.9352
 L 169.496,-5.76352 L 169.315,-5.62469 L 169.108,-5.52556 L 168.875,-5.46608 L 168.615,-5.44624 z
M 57.3606,-5.5 L 57.3606,-8.51651 L 56.6092,-8.22623 L 56.6092,-8.86639 L 58.0495,-9.45518 L 58.1309,-9.45518
 L 58.1309,-5.5 z
" stroke="black" fill="lightgray" stroke-width="0.5"/>
</svg>
